<svg xmlns="http://www.w3.org/2000/svg" viewBox="0 0 32 32"><rect width="32" height="32" rx="4" fill="#000"/><path d="M17.8 22.7V25c.4.2.9.4 1.5.5.6.1 1.2.2 1.8.2 1.7 0 3-.4 3.9-1.3.9-.9 1.3-2.2 1.3-3.8 0-.8-.1-1.6-.4-2.2-.3-.7-.7-1.2-1.2-1.7l-2.5-1.4c-.3-.2-.6-.4-.8-.7-.2-.3-.3-.6-.3-.9 0-.4.1-.7.3-.9.2-.2.5-.3.9-.3.7 0 1.3.3 1.8.9l1.5-1.7c-.4-.4-.9-.8-1.5-1-.6-.3-1.2-.4-1.9-.4-1.5 0-2.7.4-3.5 1.2-.8.8-1.2 1.9-1.2 3.3 0 .7.1 1.4.4 2 .3.6.7 1.1 1.2 1.5l2.5 1.4c.3.2.6.4.8.7.2.3.3.6.3 1 0 .5-.1.8-.4 1.1-.3.3-.7.4-1.1.4-.9 0-1.8-.5-2.4-1.5l-1.7 1.6zM6 13h4.2V26h2.5V13H17v-2.3H6z" fill="#fff"/></svg>
