<svg xmlns="http://www.w3.org/2000/svg" viewBox="0 0 32 32"><path d="M16 5c-6.1 0-11 4.9-11 11 0 4.9 3.2 9.1 7.6 10.6.6.1.8-.2.8-.5v-1.9c-3.2.7-3.8-1.5-3.8-1.5-.5-1.3-1.2-1.6-1.2-1.6-1-.7.1-.7.1-.7 1.1.1 1.7 1.1 1.7 1.1 1 1.7 2.6 1.2 3.2.9.1-.7.4-1.2.7-1.5-2.5-.3-5.2-1.3-5.2-5.7 0-1.3.5-2.3 1.2-3.1-.1-.3-.5-1.5.1-3.1 0 0 1-.3 3.3 1.2 1-.3 2-.4 3-.4s2 .1 3 .4c2.3-1.5 3.3-1.2 3.3-1.2.6 1.6.2 2.8.1 3.1.7.8 1.2 1.8 1.2 3.1 0 4.4-2.7 5.4-5.3 5.7.4.4.8 1.1.8 2.2v3.3c0 .3.2.7.8.5C23.8 25.1 27 20.9 27 16c0-6.1-4.9-11-11-11z" fill="#24292e"/></svg>
