<svg xmlns="http://www.w3.org/2000/svg" viewBox="0 0 32 32"><circle cx="16" cy="16" r="3.2" fill="#61dafb"/><path d="M16 10.5c5.8 0 10.5 2.5 10.5 5.5s-4.7 5.5-10.5 5.5S5.5 19 5.5 16 10.2 10.5 16 10.5z" fill="none" stroke="#61dafb" stroke-width="1.2"/><path d="M12.2 13.2c2.9-5 6.7-8 9.3-6.5s2.7 6.7-.2 11.7-6.7 8-9.3 6.5-2.7-6.8.2-11.7z" fill="none" stroke="#61dafb" stroke-width="1.2"/><path d="M19.8 13.2c2.9 5 3.7 10.2 1.1 11.7s-6.4-1.5-9.3-6.5.7-10.3 1.1-11.7S16.9 8.2 19.8 13.2z" fill="none" stroke="#61dafb" stroke-width="1.2"/></svg>
