<svg xmlns="http://www.w3.org/2000/svg" viewBox="0 0 32 32"><rect width="32" height="32" rx="4" fill="#3178c6"/><path d="M18.6 23.3v2.3c.4.2.8.3 1.3.4.5.1 1 .1 1.5.1.5 0 1 0 1.5-.2.5-.1.9-.3 1.2-.6.4-.3.6-.6.8-1.1.2-.5.3-1 .3-1.7v-7.6h-2.4v7.5c0 .6-.1 1-.4 1.2-.3.3-.7.4-1.1.4-.2 0-.4 0-.7-.1-.3 0-.6-.2-.8-.4l-.2.8zm-5.8.3c.5.3 1.1.4 1.7.5.6.1 1.2.1 1.8.1.6 0 1.1 0 1.6-.2.5-.1.9-.3 1.3-.6.3-.3.6-.7.8-1.1.2-.5.3-1 .3-1.7 0-.5-.1-.9-.2-1.3-.2-.4-.4-.7-.7-1-.3-.3-.6-.5-1-.7-.4-.2-.8-.4-1.2-.5l-.9-.3c-.3-.1-.5-.2-.7-.3-.2-.1-.4-.3-.5-.4-.1-.2-.2-.4-.2-.6 0-.2 0-.4.1-.5.1-.2.2-.3.4-.4.2-.1.4-.2.6-.2h.7c.5 0 .9.1 1.3.3.4.2.8.4 1.1.7l1.3-1.6c-.5-.4-1-.7-1.7-1-.7-.2-1.4-.3-2.1-.3-.6 0-1.1 0-1.5.2-.5.1-.9.3-1.2.6-.4.3-.6.6-.8 1-.2.4-.3.9-.3 1.4 0 .8.2 1.4.6 1.9.4.5 1 .9 1.8 1.2l1 .4c.3.1.6.2.8.4.2.2.4.3.5.5.1.2.2.4.2.7 0 .3 0 .5-.2.7-.1.2-.3.4-.5.5-.2.1-.4.2-.7.3h-.8c-.5 0-1-.1-1.5-.4-.5-.2-.9-.5-1.3-.9l-1.5 1.7z" fill="#fff"/></svg>
